<svg width="45" height="45" viewBox="0 0 45 45" fill="none" xmlns="http://www.w3.org/2000/svg">
<path d="M22.5 9.375L23.4943 8.38063C22.9451 7.83146 22.0549 7.83146 21.5057 8.38063L22.5 9.375ZM22.5 24.375L21.5057 25.3693C22.0549 25.9185 22.9451 25.9185 23.4943 25.3693L22.5 24.375ZM17.7556 12.1306C17.2065 12.6798 17.2065 13.5702 17.7556 14.1194C18.3048 14.6685 19.1951 14.6685 19.7443 14.1194L17.7556 12.1306ZM25.2557 14.1194C25.8049 14.6685 26.6951 14.6685 27.2443 14.1194C27.7935 13.5702 27.7935 12.6798 27.2443 12.1306L25.2557 14.1194ZM19.7443 19.6307C19.1951 19.0815 18.3048 19.0815 17.7556 19.6307C17.2065 20.1799 17.2065 21.0701 17.7556 21.6193L19.7443 19.6307ZM27.2443 21.6193C27.7935 21.0701 27.7935 20.1799 27.2443 19.6307C26.6951 19.0815 25.8049 19.0815 25.2557 19.6307L27.2443 21.6193ZM6.09375 18.75V26.25H8.90625V18.75H6.09375ZM38.9062 26.25V18.75H36.0938V26.25H38.9062ZM21.0938 9.375V24.375H23.9062V9.375H21.0938ZM21.5057 8.38063L17.7556 12.1306L19.7443 14.1194L23.4943 10.3694L21.5057 8.38063ZM21.5057 10.3694L25.2557 14.1194L27.2443 12.1306L23.4943 8.38063L21.5057 10.3694ZM23.4943 23.3807L19.7443 19.6307L17.7556 21.6193L21.5057 25.3693L23.4943 23.3807ZM23.4943 25.3693L27.2443 21.6193L25.2557 19.6307L21.5057 23.3807L23.4943 25.3693ZM38.9062 18.75C38.9062 9.68908 31.5609 2.34375 22.5 2.34375V5.15625C30.0077 5.15625 36.0938 11.2424 36.0938 18.75H38.9062ZM22.5 42.6562C31.5609 42.6562 38.9062 35.3109 38.9062 26.25H36.0938C36.0938 33.7577 30.0077 39.8437 22.5 39.8437V42.6562ZM6.09375 26.25C6.09375 35.3109 13.4391 42.6562 22.5 42.6562V39.8437C14.9924 39.8437 8.90625 33.7577 8.90625 26.25H6.09375ZM8.90625 18.75C8.90625 11.2424 14.9924 5.15625 22.5 5.15625V2.34375C13.4391 2.34375 6.09375 9.68908 6.09375 18.75H8.90625Z" fill="black"/>
</svg>
